#!OML:ASF H:\Punching\Project 1\Capture day 1\Session 1\female.ASF
:FULLY-SPECIFIED
:DEGREES
2092
root -1.33338 14.9952 10.9355 14.6055 17.6865 -0.0650791
lowerback -2.07593 0.333525 -0.294926
upperback -7.06475 0.32289 -3.3241
thorax -6.15769 0.0878195 -3.31524
lowerneck -11.942 -2.68504 4.78482
upperneck 35.7569 -7.51701 6.57863
head 14.4951 -1.61955 0.712251
rclavicle -3.55328e-015 7.95139e-015
rhumerus 60.2118 -13.25 -22.0249
rradius 56.7394
rwrist 18.9141
rhand -24.8204 13.4421
rfingers 7.12502
rthumb 1.68507 -16.531
lclavicle -3.55328e-015 7.95139e-015
lhumerus -52.4977 -29.0816 97.6342
lradius 122.812
lwrist 4.76877
lhand -21.9626 7.47252
lfingers 7.12502
lthumb 4.44491 37.4059
rfemur -40.0016 -5.46015 14.1856
rtibia 50.1708
rfoot -19.6677 -9.2913
rtoes -7.80808
lfemur 5.68017 -19.7711 -3.98625
ltibia -3.18055e-015
lfoot -16.5143 25.4705
ltoes -11.5252
2093
root -1.37801 14.9872 10.9767 14.6938 17.8682 0.07249
lowerback -2.04698 0.245356 -0.469886
upperback -7.02228 0.202449 -3.31564
thorax -6.13587 0.0382967 -3.20346
lowerneck -11.9284 -2.65094 4.82145
upperneck 35.8687 -7.52613 6.69118
head 14.553 -1.5969 0.753574
rclavicle -7.64079e-015 -2.06736e-014
rhumerus 60.3244 -13.0838 -21.9765
rradius 56.8849
rwrist 19.7814
rhand -24.9229 13.4912
rfingers 7.12502
rthumb 1.58605 -16.4827
lclavicle -7.64079e-015 -2.06736e-014
lhumerus -52.4934 -28.8727 97.7394
lradius 122.854
lwrist 4.96578
lhand -21.9691 7.45397
lfingers 7.12502
lthumb 4.43861 37.3875
rfemur -40.0827 -5.42901 14.277
rtibia 50.5636
rfoot -20.0006 -9.62024
rtoes -7.70752
lfemur 5.64393 -19.8119 -3.8756
ltibia 4.13472e-014
lfoot -16.3955 25.3516
ltoes -11.6106
2094
root -1.41927 14.9805 11.0152 14.8042 18.0176 0.22425
lowerback -2.05127 0.160182 -0.644757
upperback -6.98294 0.0864731 -3.31533
thorax -6.0975 -0.00923724 -3.10018
lowerneck -11.914 -2.60779 4.87317
upperneck 35.9764 -7.5182 6.78316
head 14.6067 -1.56801 0.786548
rclavicle -8.10979e-014 -7.15625e-015
rhumerus 60.4487 -12.8638 -21.973
rradius 57.0432
rwrist 20.5844
rhand -25.029 13.5455
rfingers 7.12502
rthumb 1.48358 -16.4291
lclavicle -8.10979e-014 -7.15625e-015
lhumerus -52.4377 -28.7277 97.8146
lradius 122.886
lwrist 5.11048
lhand -21.9845 7.41394
lfingers 7.12502
lthumb 4.42377 37.3477
rfemur -40.237 -5.38 14.3245
rtibia 51.0187
rfoot -20.2776 -9.89182
rtoes -7.66509
lfemur 5.59014 -19.8203 -3.79944
ltibia 2.22639e-014
lfoot -16.2673 25.2286
ltoes -11.7228
2095
root -1.45674 14.9741 11.0499 14.9291 18.1168 0.378503
lowerback -2.07317 0.0884872 -0.799623
upperback -6.94896 -0.011127 -3.32614
thorax -6.05345 -0.0491798 -3.02047
lowerneck -11.8778 -2.56208 4.92211
upperneck 36.0595 -7.50159 6.87681
head 14.6437 -1.53762 0.821998
rclavicle 2.12234e-014 1.59028e-014
rhumerus 60.5763 -12.5977 -21.9862
rradius 57.2093
rwrist 21.2222
rhand -25.1537 13.5889
rfingers 7.12502
rthumb 1.36312 -16.3865
lclavicle 2.12234e-014 1.59028e-014
lhumerus -52.3374 -28.6465 97.8551
lradius 122.905
lwrist 5.15083
lhand -21.9947 7.35597
lfingers 7.12502
lthumb 4.4139 37.29
rfemur -40.4598 -5.3203 14.3427
rtibia 51.5219
rfoot -20.5086 -10.0927
rtoes -7.66925
lfemur 5.53021 -19.7782 -3.75392
ltibia -1.90833e-014
lfoot -16.1414 25.1057
ltoes -11.8545
2096
root -1.49004 14.9675 11.0803 15.0574 18.1551 0.524581
lowerback -2.10161 0.0380622 -0.917755
upperback -6.91843 -0.0799673 -3.34948
thorax -6.0078 -0.0773387 -2.97561
lowerneck -11.8441 -2.51294 4.97743
upperneck 36.1317 -7.47714 6.96048
head 14.6751 -1.50495 0.853241
rclavicle -6.18298e-014 -3.97569e-015
rhumerus 60.6979 -12.2963 -21.99
rradius 57.3818
rwrist 21.6278
rhand -25.2238 13.6256
rfingers 7.12502
rthumb 1.29537 -16.3502
lclavicle -6.18298e-014 -3.97569e-015
lhumerus -52.1931 -28.6356 97.8594
lradius 122.902
lwrist 5.06534
lhand -21.9941 7.28988
lfingers 7.12502
lthumb 4.41444 37.2239
rfemur -40.7283 -5.25708 14.346
rtibia 52.042
rfoot -20.7016 -10.2256
rtoes -7.72535
lfemur 5.47841 -19.6757 -3.73478
ltibia -5.08889e-014
lfoot -16.0273 24.9809
ltoes -11.9948
2097
root -1.51918 14.9606 11.106 15.1788 18.1272 0.651105
lowerback -2.11825 0.0149959 -0.984319
upperback -6.89158 -0.112326 -3.38558
thorax -5.9713 -0.0907093 -2.97447
lowerneck -11.8177 -2.46342 5.03764
upperneck 36.1918 -7.45032 7.03684
head 14.7019 -1.47207 0.880657
rclavicle 5.25382e-015 1.51076e-014
rhumerus 60.8023 -11.9734 -21.9688
rradius 57.5646
rwrist 21.7774
rhand -25.1939 13.6531
rfingers 7.12502
rthumb 1.32434 -16.3225
lclavicle 5.25382e-015 1.51076e-014
lhumerus -52.0112 -28.7017 97.8314
lradius 122.885
lwrist 4.86385
lhand -21.9852 7.22977
lfingers 7.12502
lthumb 4.4231 37.1636
rfemur -41.0202 -5.18773 14.3484
rtibia 52.5421
rfoot -20.8565 -10.3009
rtoes -7.81361
lfemur 5.44292 -19.5072 -3.73154
ltibia -1.59028e-014
lfoot -15.9186 24.8477
ltoes -12.1511
2098
root -1.5442 14.9539 11.1271 15.2816 18.0418 0.752951
lowerback -2.11272 0.0172133 -0.996426
upperback -6.86848 -0.111292 -3.43231
thorax -5.95022 -0.0909001 -3.01634
lowerneck -11.7855 -2.41065 5.11055
upperneck 36.24 -7.41646 7.10345
head 14.7203 -1.43658 0.902781
rclavicle 2.88859e-015 3.89618e-014
rhumerus 60.8851 -11.6302 -21.9287
rradius 57.7585
rwrist 21.7023
rhand -25.1025 13.6671
rfingers 7.12502
rthumb 1.41258 -16.308
lclavicle 2.88859e-015 3.89618e-014
lhumerus -51.8007 -28.844 97.777
lradius 122.859
lwrist 4.59596
lhand -21.9651 7.19085
lfingers 7.12502
lthumb 4.44246 37.1243
rfemur -41.305 -5.11509 14.358
rtibia 52.9906
rfoot -20.9727 -10.3318
rtoes -7.91599
lfemur 5.43226 -19.2821 -3.73795
ltibia -1.27222e-014
lfoot -15.8201 24.7035
ltoes -12.3027
